<mxfile host="app.diagrams.net" agent="Mozilla/5.0 (Windows NT 10.0; Win64; x64) AppleWebKit/537.36 (KHTML, like Gecko) Chrome/130.0.0.0 Safari/537.36 Edg/130.0.0.0" version="24.8.3">
  <diagram name="Page-1" id="Lg7OvXt3kj4zF9bIyfe0">
    <mxGraphModel dx="2277" dy="1458" grid="1" gridSize="10" guides="1" tooltips="1" connect="1" arrows="1" fold="1" page="1" pageScale="1" pageWidth="1169" pageHeight="827" math="0" shadow="0">
      <root>
        <mxCell id="0" />
        <mxCell id="1" parent="0" />
        <mxCell id="ci3b5TTThc14Hmr34_X9-3" style="edgeStyle=orthogonalEdgeStyle;rounded=0;orthogonalLoop=1;jettySize=auto;html=1;entryX=0;entryY=0.5;entryDx=0;entryDy=0;" parent="1" source="ci3b5TTThc14Hmr34_X9-1" target="ci3b5TTThc14Hmr34_X9-2" edge="1">
          <mxGeometry relative="1" as="geometry" />
        </mxCell>
        <mxCell id="ci3b5TTThc14Hmr34_X9-1" value="" style="ellipse;whiteSpace=wrap;html=1;" parent="1" vertex="1">
          <mxGeometry x="-90" y="30" width="120" height="80" as="geometry" />
        </mxCell>
        <mxCell id="ci3b5TTThc14Hmr34_X9-8" style="edgeStyle=orthogonalEdgeStyle;rounded=0;orthogonalLoop=1;jettySize=auto;html=1;" parent="1" source="ci3b5TTThc14Hmr34_X9-2" edge="1">
          <mxGeometry relative="1" as="geometry">
            <mxPoint x="450" y="70" as="targetPoint" />
          </mxGeometry>
        </mxCell>
        <mxCell id="JAn3YFs3t6qd0V5HGAAI-11" value="" style="edgeStyle=orthogonalEdgeStyle;rounded=0;orthogonalLoop=1;jettySize=auto;html=1;" edge="1" parent="1" source="ci3b5TTThc14Hmr34_X9-2" target="JAn3YFs3t6qd0V5HGAAI-10">
          <mxGeometry relative="1" as="geometry" />
        </mxCell>
        <mxCell id="JAn3YFs3t6qd0V5HGAAI-20" value="" style="edgeStyle=orthogonalEdgeStyle;rounded=0;orthogonalLoop=1;jettySize=auto;html=1;" edge="1" parent="1" source="ci3b5TTThc14Hmr34_X9-2" target="JAn3YFs3t6qd0V5HGAAI-19">
          <mxGeometry relative="1" as="geometry" />
        </mxCell>
        <mxCell id="ci3b5TTThc14Hmr34_X9-2" value="assets list" style="rounded=1;whiteSpace=wrap;html=1;fontStyle=1" parent="1" vertex="1">
          <mxGeometry x="120" y="40" width="120" height="60" as="geometry" />
        </mxCell>
        <mxCell id="ci3b5TTThc14Hmr34_X9-4" value="options (btns)" style="swimlane;fontStyle=1;childLayout=stackLayout;horizontal=1;startSize=30;horizontalStack=0;resizeParent=1;resizeParentMax=0;resizeLast=0;collapsible=1;marginBottom=0;whiteSpace=wrap;html=1;" parent="1" vertex="1">
          <mxGeometry x="460" y="10" width="140" height="150" as="geometry" />
        </mxCell>
        <mxCell id="ci3b5TTThc14Hmr34_X9-17" style="edgeStyle=orthogonalEdgeStyle;rounded=0;orthogonalLoop=1;jettySize=auto;html=1;exitX=1;exitY=0.5;exitDx=0;exitDy=0;" parent="ci3b5TTThc14Hmr34_X9-4" source="ci3b5TTThc14Hmr34_X9-5" edge="1">
          <mxGeometry relative="1" as="geometry">
            <mxPoint x="240" y="70" as="targetPoint" />
            <Array as="points">
              <mxPoint x="190" y="45" />
              <mxPoint x="190" y="70" />
            </Array>
          </mxGeometry>
        </mxCell>
        <mxCell id="ci3b5TTThc14Hmr34_X9-5" value="activate" style="text;strokeColor=none;fillColor=none;align=center;verticalAlign=middle;spacingLeft=4;spacingRight=4;overflow=hidden;points=[[0,0.5],[1,0.5]];portConstraint=eastwest;rotatable=0;whiteSpace=wrap;html=1;fontStyle=1" parent="ci3b5TTThc14Hmr34_X9-4" vertex="1">
          <mxGeometry y="30" width="140" height="30" as="geometry" />
        </mxCell>
        <mxCell id="ci3b5TTThc14Hmr34_X9-16" style="edgeStyle=orthogonalEdgeStyle;rounded=0;orthogonalLoop=1;jettySize=auto;html=1;exitX=1;exitY=0.5;exitDx=0;exitDy=0;" parent="ci3b5TTThc14Hmr34_X9-4" source="ci3b5TTThc14Hmr34_X9-6" edge="1">
          <mxGeometry relative="1" as="geometry">
            <mxPoint x="240" y="70" as="targetPoint" />
          </mxGeometry>
        </mxCell>
        <mxCell id="ci3b5TTThc14Hmr34_X9-6" value="disable" style="text;strokeColor=none;fillColor=none;align=center;verticalAlign=middle;spacingLeft=4;spacingRight=4;overflow=hidden;points=[[0,0.5],[1,0.5]];portConstraint=eastwest;rotatable=0;whiteSpace=wrap;html=1;fontStyle=1" parent="ci3b5TTThc14Hmr34_X9-4" vertex="1">
          <mxGeometry y="60" width="140" height="30" as="geometry" />
        </mxCell>
        <mxCell id="ci3b5TTThc14Hmr34_X9-7" value="delete" style="text;strokeColor=none;fillColor=none;align=center;verticalAlign=middle;spacingLeft=4;spacingRight=4;overflow=hidden;points=[[0,0.5],[1,0.5]];portConstraint=eastwest;rotatable=0;whiteSpace=wrap;html=1;fontStyle=1" parent="ci3b5TTThc14Hmr34_X9-4" vertex="1">
          <mxGeometry y="90" width="140" height="30" as="geometry" />
        </mxCell>
        <mxCell id="ci3b5TTThc14Hmr34_X9-9" value="edit" style="text;strokeColor=none;fillColor=none;align=center;verticalAlign=middle;spacingLeft=4;spacingRight=4;overflow=hidden;points=[[0,0.5],[1,0.5]];portConstraint=eastwest;rotatable=0;whiteSpace=wrap;html=1;fontStyle=1" parent="ci3b5TTThc14Hmr34_X9-4" vertex="1">
          <mxGeometry y="120" width="140" height="30" as="geometry" />
        </mxCell>
        <mxCell id="ci3b5TTThc14Hmr34_X9-19" value="" style="edgeStyle=orthogonalEdgeStyle;rounded=0;orthogonalLoop=1;jettySize=auto;html=1;" parent="1" source="ci3b5TTThc14Hmr34_X9-14" edge="1">
          <mxGeometry relative="1" as="geometry">
            <mxPoint x="755" y="-70" as="targetPoint" />
          </mxGeometry>
        </mxCell>
        <mxCell id="ci3b5TTThc14Hmr34_X9-21" value="&lt;font size=&quot;1&quot; color=&quot;#33ff33&quot;&gt;&lt;b style=&quot;font-size: 14px;&quot;&gt;YES&lt;/b&gt;&lt;/font&gt;" style="edgeLabel;html=1;align=center;verticalAlign=middle;resizable=0;points=[];" parent="ci3b5TTThc14Hmr34_X9-19" vertex="1" connectable="0">
          <mxGeometry x="-0.1551" relative="1" as="geometry">
            <mxPoint as="offset" />
          </mxGeometry>
        </mxCell>
        <mxCell id="ci3b5TTThc14Hmr34_X9-23" style="edgeStyle=orthogonalEdgeStyle;rounded=0;orthogonalLoop=1;jettySize=auto;html=1;entryX=0;entryY=0.5;entryDx=0;entryDy=0;" parent="1" source="ci3b5TTThc14Hmr34_X9-14" target="ci3b5TTThc14Hmr34_X9-22" edge="1">
          <mxGeometry relative="1" as="geometry" />
        </mxCell>
        <mxCell id="ci3b5TTThc14Hmr34_X9-24" value="&lt;font style=&quot;font-size: 14px;&quot; color=&quot;#ff6666&quot;&gt;NO&lt;/font&gt;" style="edgeLabel;html=1;align=center;verticalAlign=middle;resizable=0;points=[];fontStyle=1" parent="ci3b5TTThc14Hmr34_X9-23" vertex="1" connectable="0">
          <mxGeometry x="-0.0048" y="1" relative="1" as="geometry">
            <mxPoint as="offset" />
          </mxGeometry>
        </mxCell>
        <mxCell id="ci3b5TTThc14Hmr34_X9-14" value="confirm?" style="rhombus;whiteSpace=wrap;html=1;fontStyle=1" parent="1" vertex="1">
          <mxGeometry x="700" y="30" width="110" height="100" as="geometry" />
        </mxCell>
        <mxCell id="ci3b5TTThc14Hmr34_X9-15" style="edgeStyle=orthogonalEdgeStyle;rounded=0;orthogonalLoop=1;jettySize=auto;html=1;exitX=1;exitY=0.5;exitDx=0;exitDy=0;" parent="1" source="ci3b5TTThc14Hmr34_X9-7" target="ci3b5TTThc14Hmr34_X9-14" edge="1">
          <mxGeometry relative="1" as="geometry" />
        </mxCell>
        <mxCell id="ci3b5TTThc14Hmr34_X9-34" value="" style="edgeStyle=orthogonalEdgeStyle;rounded=0;orthogonalLoop=1;jettySize=auto;html=1;" parent="1" source="ci3b5TTThc14Hmr34_X9-20" target="ci3b5TTThc14Hmr34_X9-33" edge="1">
          <mxGeometry relative="1" as="geometry" />
        </mxCell>
        <mxCell id="ci3b5TTThc14Hmr34_X9-20" value="execute" style="rounded=1;whiteSpace=wrap;html=1;fontStyle=1" parent="1" vertex="1">
          <mxGeometry x="695" y="-130" width="120" height="60" as="geometry" />
        </mxCell>
        <mxCell id="ci3b5TTThc14Hmr34_X9-22" value="close modal" style="rounded=1;whiteSpace=wrap;html=1;fontStyle=1" parent="1" vertex="1">
          <mxGeometry x="910" y="50" width="120" height="60" as="geometry" />
        </mxCell>
        <mxCell id="ci3b5TTThc14Hmr34_X9-28" style="edgeStyle=orthogonalEdgeStyle;rounded=0;orthogonalLoop=1;jettySize=auto;html=1;entryX=0;entryY=0.5;entryDx=0;entryDy=0;" parent="1" source="ci3b5TTThc14Hmr34_X9-26" target="ci3b5TTThc14Hmr34_X9-29" edge="1">
          <mxGeometry relative="1" as="geometry">
            <mxPoint x="900" y="259.9999999999998" as="targetPoint" />
          </mxGeometry>
        </mxCell>
        <mxCell id="ci3b5TTThc14Hmr34_X9-26" value="open modal with asset info" style="rounded=1;whiteSpace=wrap;html=1;fontStyle=1" parent="1" vertex="1">
          <mxGeometry x="710" y="230" width="120" height="60" as="geometry" />
        </mxCell>
        <mxCell id="ci3b5TTThc14Hmr34_X9-25" style="edgeStyle=orthogonalEdgeStyle;rounded=0;orthogonalLoop=1;jettySize=auto;html=1;entryX=0;entryY=0.5;entryDx=0;entryDy=0;" parent="1" source="ci3b5TTThc14Hmr34_X9-9" target="ci3b5TTThc14Hmr34_X9-26" edge="1">
          <mxGeometry relative="1" as="geometry">
            <mxPoint x="700" y="190" as="targetPoint" />
            <Array as="points">
              <mxPoint x="650" y="145" />
              <mxPoint x="650" y="260" />
            </Array>
          </mxGeometry>
        </mxCell>
        <mxCell id="ci3b5TTThc14Hmr34_X9-31" style="edgeStyle=orthogonalEdgeStyle;rounded=0;orthogonalLoop=1;jettySize=auto;html=1;entryX=0;entryY=0.5;entryDx=0;entryDy=0;" parent="1" source="ci3b5TTThc14Hmr34_X9-29" target="ci3b5TTThc14Hmr34_X9-30" edge="1">
          <mxGeometry relative="1" as="geometry" />
        </mxCell>
        <mxCell id="ci3b5TTThc14Hmr34_X9-32" value="&lt;font size=&quot;1&quot; color=&quot;#00ff00&quot;&gt;&lt;b style=&quot;font-size: 14px;&quot;&gt;YES&lt;/b&gt;&lt;/font&gt;" style="edgeLabel;html=1;align=center;verticalAlign=middle;resizable=0;points=[];" parent="ci3b5TTThc14Hmr34_X9-31" vertex="1" connectable="0">
          <mxGeometry x="-0.0217" y="1" relative="1" as="geometry">
            <mxPoint as="offset" />
          </mxGeometry>
        </mxCell>
        <mxCell id="qxFZKJnwnPM8_OUHx0Zc-7" style="edgeStyle=orthogonalEdgeStyle;rounded=0;orthogonalLoop=1;jettySize=auto;html=1;" parent="1" source="ci3b5TTThc14Hmr34_X9-29" edge="1">
          <mxGeometry relative="1" as="geometry">
            <mxPoint x="965" y="370" as="targetPoint" />
          </mxGeometry>
        </mxCell>
        <mxCell id="qxFZKJnwnPM8_OUHx0Zc-9" value="&lt;font style=&quot;font-size: 15px;&quot; color=&quot;#ff6666&quot;&gt;NO&lt;/font&gt;" style="edgeLabel;html=1;align=center;verticalAlign=middle;resizable=0;points=[];fontStyle=1" parent="qxFZKJnwnPM8_OUHx0Zc-7" vertex="1" connectable="0">
          <mxGeometry x="-0.3279" y="-2" relative="1" as="geometry">
            <mxPoint as="offset" />
          </mxGeometry>
        </mxCell>
        <mxCell id="ci3b5TTThc14Hmr34_X9-29" value="validate?" style="rhombus;whiteSpace=wrap;html=1;fontStyle=1" parent="1" vertex="1">
          <mxGeometry x="910" y="210" width="110" height="100" as="geometry" />
        </mxCell>
        <mxCell id="ci3b5TTThc14Hmr34_X9-30" value="EXECUTE" style="rounded=1;whiteSpace=wrap;html=1;fontStyle=1" parent="1" vertex="1">
          <mxGeometry x="1090" y="230" width="120" height="60" as="geometry" />
        </mxCell>
        <mxCell id="qxFZKJnwnPM8_OUHx0Zc-2" value="" style="edgeStyle=orthogonalEdgeStyle;rounded=0;orthogonalLoop=1;jettySize=auto;html=1;" parent="1" source="ci3b5TTThc14Hmr34_X9-33" target="qxFZKJnwnPM8_OUHx0Zc-1" edge="1">
          <mxGeometry relative="1" as="geometry" />
        </mxCell>
        <mxCell id="ci3b5TTThc14Hmr34_X9-33" value="show success message" style="rounded=1;whiteSpace=wrap;html=1;fontStyle=1" parent="1" vertex="1">
          <mxGeometry x="695" y="-260" width="120" height="60" as="geometry" />
        </mxCell>
        <mxCell id="qxFZKJnwnPM8_OUHx0Zc-1" value="close modal" style="whiteSpace=wrap;html=1;rounded=1;fontStyle=1;" parent="1" vertex="1">
          <mxGeometry x="695" y="-400" width="120" height="60" as="geometry" />
        </mxCell>
        <mxCell id="qxFZKJnwnPM8_OUHx0Zc-11" value="" style="edgeStyle=orthogonalEdgeStyle;rounded=0;orthogonalLoop=1;jettySize=auto;html=1;" parent="1" source="qxFZKJnwnPM8_OUHx0Zc-8" target="qxFZKJnwnPM8_OUHx0Zc-10" edge="1">
          <mxGeometry relative="1" as="geometry" />
        </mxCell>
        <mxCell id="qxFZKJnwnPM8_OUHx0Zc-8" value="SHOW ERROR" style="rounded=1;whiteSpace=wrap;html=1;fontStyle=1" parent="1" vertex="1">
          <mxGeometry x="905" y="370" width="120" height="60" as="geometry" />
        </mxCell>
        <mxCell id="qxFZKJnwnPM8_OUHx0Zc-10" value="CLOSE CONFIRM WINDOW" style="rounded=1;whiteSpace=wrap;html=1;fontStyle=1" parent="1" vertex="1">
          <mxGeometry x="905" y="470" width="120" height="60" as="geometry" />
        </mxCell>
        <mxCell id="JAn3YFs3t6qd0V5HGAAI-2" value="FOR EACH ASSET" style="text;html=1;align=center;verticalAlign=middle;whiteSpace=wrap;rounded=0;fontStyle=1" vertex="1" parent="1">
          <mxGeometry x="290" y="40" width="110" height="30" as="geometry" />
        </mxCell>
        <mxCell id="JAn3YFs3t6qd0V5HGAAI-10" value="OPEN MODAL&lt;br&gt;MOVIMENTAR ATIVO" style="rounded=1;whiteSpace=wrap;html=1;fontStyle=1" vertex="1" parent="1">
          <mxGeometry x="120" y="-100" width="120" height="60" as="geometry" />
        </mxCell>
        <mxCell id="JAn3YFs3t6qd0V5HGAAI-19" value="SEARCH ASSETS" style="rounded=1;whiteSpace=wrap;html=1;fontStyle=1" vertex="1" parent="1">
          <mxGeometry x="120" y="180" width="120" height="60" as="geometry" />
        </mxCell>
      </root>
    </mxGraphModel>
  </diagram>
</mxfile>
